<?xml version="1.0" encoding="utf-8"?>
<!-- Generator: Adobe Illustrator 27.3.1, SVG Export Plug-In . SVG Version: 6.00 Build 0)  -->
<svg version="1.1" id="logo-1" xmlns="http://www.w3.org/2000/svg" xmlns:xlink="http://www.w3.org/1999/xlink" x="0px" y="0px"
	 viewBox="0 0 132 35" style="enable-background:new 0 0 132 35;" xml:space="preserve">
<path d="M38.5,11.3h3.2v13h-3.2V11.3z M43,19.4c0-3.2,2-5.2,5-5.2s5,1.9,5,5.2s-1.9,5.2-5,5.2S43,22.7,43,19.4z M49.8,19.4
	c0-1.8-0.7-2.8-1.8-2.8c-1.1,0-1.8,1-1.8,2.8c0,1.8,0.7,2.8,1.8,2.8C49.1,22.2,49.8,21.2,49.8,19.4L49.8,19.4z M54.3,24.9h3.1
	c0.1,0.3,0.4,0.6,0.7,0.8c0.3,0.2,0.7,0.3,1,0.2c1.2,0,1.9-0.7,1.9-1.6v-1.8h0c-0.3,0.6-0.7,1-1.2,1.3c-0.5,0.3-1.2,0.5-1.8,0.4
	c-2.3,0-3.9-1.8-3.9-4.9s1.5-5,4-5c0.6,0,1.3,0.1,1.8,0.5c0.5,0.3,1,0.8,1.2,1.4H61v-1.8h3.2v9.7c0,2.4-2.1,3.8-5.1,3.8
	C56.3,28,54.5,26.7,54.3,24.9L54.3,24.9z M61,19.4c0-1.6-0.7-2.6-1.9-2.6s-1.8,1-1.8,2.6c0,1.6,0.7,2.5,1.8,2.5
	C60.3,21.9,61,21,61,19.4z M65.4,19.4c0-3.2,2-5.2,5-5.2s5,1.9,5,5.2s-1.9,5.2-5,5.2C67.4,24.5,65.5,22.7,65.4,19.4L65.4,19.4z
	 M72.3,19.4c0-1.8-0.7-2.8-1.8-2.8c-1.1,0-1.8,1-1.8,2.8c0,1.8,0.7,2.8,1.8,2.8C71.6,22.2,72.3,21.2,72.3,19.4L72.3,19.4z
	 M76.8,12.1c0-0.3,0.1-0.7,0.2-0.9c0.2-0.3,0.4-0.5,0.7-0.6c0.3-0.1,0.6-0.2,1-0.1c0.3,0.1,0.6,0.2,0.9,0.4c0.2,0.2,0.4,0.5,0.5,0.8
	c0.1,0.3,0,0.7-0.1,1c-0.1,0.3-0.3,0.6-0.6,0.7c-0.3,0.2-0.6,0.3-0.9,0.3c-0.2,0-0.4,0-0.6-0.1c-0.2-0.1-0.4-0.2-0.5-0.3
	c-0.2-0.1-0.3-0.3-0.4-0.5C76.8,12.5,76.8,12.3,76.8,12.1L76.8,12.1z M76.8,14.4H80v9.9h-3.2L76.8,14.4z M91.7,19.4
	c0,3.2-1.4,5.1-3.9,5.1c-0.6,0-1.3-0.1-1.8-0.4c-0.5-0.3-1-0.8-1.2-1.4h-0.1v4.9h-3.2v-13h3.2v1.8h0.1c0.2-0.6,0.7-1.1,1.2-1.4
	c0.5-0.3,1.2-0.5,1.8-0.5C90.3,14.3,91.8,16.2,91.7,19.4L91.7,19.4z M88.4,19.4c0-1.6-0.7-2.6-1.9-2.6c-1.1,0-1.8,1-1.8,2.6
	c0,1.6,0.7,2.6,1.8,2.6C87.7,21.9,88.5,21,88.4,19.4L88.4,19.4z M97.2,14.2c2.7,0,4.4,1.3,4.4,3.3h-2.9c0-0.7-0.6-1.1-1.5-1.1
	c-0.9,0-1.3,0.3-1.3,0.8s0.4,0.7,1.1,0.8l2.1,0.4c2,0.4,2.8,1.2,2.8,2.7c0,2-1.8,3.4-4.6,3.4s-4.5-1.3-4.7-3.3h3.1
	c0.1,0.7,0.7,1.2,1.6,1.2c0.9,0,1.4-0.3,1.4-0.8c0-0.5-0.3-0.6-1.1-0.8l-1.9-0.4c-1.9-0.4-2.9-1.4-2.9-2.9
	C92.8,15.5,94.5,14.2,97.2,14.2L97.2,14.2z M112.6,24.3h-3.1v-1.9h-0.1c-0.2,0.6-0.6,1.2-1.1,1.5c-0.5,0.4-1.2,0.6-1.8,0.5
	c-0.5,0-1-0.1-1.4-0.3c-0.4-0.2-0.9-0.5-1.2-0.8c-0.3-0.4-0.6-0.8-0.8-1.2c-0.2-0.5-0.2-0.9-0.2-1.4v-6.3h3.2v5.6
	c0,1.2,0.6,1.8,1.6,1.8c0.2,0,0.5-0.1,0.7-0.2c0.2-0.1,0.4-0.2,0.6-0.4c0.2-0.2,0.3-0.4,0.3-0.6c0.1-0.2,0.1-0.5,0-0.7v-5.6h3.2
	L112.6,24.3z M114.1,14.4h3.1v1.9h0.1c0.2-0.6,0.5-1.1,1.1-1.5c0.5-0.4,1.1-0.6,1.8-0.6c0.6-0.1,1.3,0.1,1.8,0.5
	c0.5,0.4,0.9,0.9,1,1.6h0.1c0.2-0.6,0.6-1.2,1.1-1.6c0.5-0.4,1.2-0.6,1.9-0.5c0.4,0,0.9,0.1,1.3,0.2c0.4,0.2,0.8,0.4,1.1,0.7
	c0.3,0.3,0.5,0.7,0.7,1.1c0.2,0.4,0.2,0.9,0.2,1.3v6.7H126v-5.9c0-1-0.5-1.6-1.4-1.6c-0.2,0-0.4,0-0.6,0.1c-0.2,0.1-0.3,0.2-0.5,0.4
	c-0.1,0.2-0.2,0.3-0.3,0.5c-0.1,0.2-0.1,0.4,0,0.6v5.8h-3.1v-5.9c0-1-0.5-1.5-1.4-1.5c-0.2,0-0.4,0-0.6,0.1
	c-0.2,0.1-0.4,0.2-0.5,0.4c-0.1,0.2-0.2,0.3-0.3,0.5c-0.1,0.2-0.1,0.4-0.1,0.6v5.8h-3.2L114.1,14.4z"/>
<path d="M32.2,12.1c0-2-0.6-3.9-1.7-5.6s-2.7-2.9-4.6-3.6C24,2.2,22,2,20,2.5c-1.9,0.5-3.7,1.5-5,2.9H2.5v26.3h26.3V19.5
	c1-0.9,1.9-2.1,2.4-3.3S32.2,13.5,32.2,12.1L32.2,12.1z M27.1,12.1c0,1-0.3,1.9-0.8,2.7c-0.5,0.8-1.3,1.4-2.2,1.8
	c-0.9,0.4-1.9,0.5-2.8,0.3c-0.9-0.2-1.8-0.6-2.5-1.3c-0.7-0.7-1.1-1.5-1.3-2.5c-0.2-0.9-0.1-1.9,0.3-2.8c0.4-0.9,1-1.6,1.8-2.2
	c0.8-0.5,1.7-0.8,2.7-0.8c1.3,0,2.5,0.5,3.4,1.4C26.6,9.6,27.1,10.8,27.1,12.1L27.1,12.1z M23.8,26.7H7.6V10.5h4.9
	c-0.1,0.5-0.1,1.1-0.1,1.6c0,2.6,1,5.1,2.9,7c1.9,1.9,4.4,2.9,7,2.9c0.5,0,1,0,1.5-0.1V26.7z"/>
</svg>
